<svg width="77" height="77" viewBox="0 0 77 77" fill="none" xmlns="http://www.w3.org/2000/svg">
<path d="M38.5 77C59.763 77 77 59.763 77 38.5C77 17.237 59.763 0 38.5 0C17.237 0 0 17.237 0 38.5C0 59.763 17.237 77 38.5 77Z" fill="#A160E4"/>
<path d="M54.1949 17.6581L51.436 20.417L54.8744 23.8554L54.1635 24.5759L47.2457 17.6581L44.4867 20.417L51.4232 27.3535L47.0796 31.7562L32.9816 17.6581L29.9635 20.6762L44.0819 34.7945L43.6285 35.2541L26.0323 17.6581L23.1568 20.5336L40.7724 38.1491L19.8636 59.342L37.5089 76.9875C37.8383 76.9958 38.1687 77 38.5 77C59.1205 77 75.954 60.7885 76.9525 40.4155L54.1949 17.6581Z" fill="#7A3EB4"/>
<path d="M57.1366 59.3419H19.8634V30.2742L38.7193 24.8119L57.1366 30.2742V59.3419Z" fill="#EEF4FF"/>
<path d="M57.1365 59.3419H38.7192V24.8119L57.1365 30.2742V59.3419Z" fill="#D6E9F8"/>
<path d="M19.8634 21.5624H57.1366V30.2742H19.8634V21.5624Z" fill="#00DDC1"/>
<path d="M22.8051 17.6581H26.0322V25.4667H22.8051V17.6581Z" fill="#5A5A5A"/>
<path d="M29.7543 17.6581H32.9814V25.4667H29.7543V17.6581Z" fill="#5A5A5A"/>
<path d="M38.7192 21.5624H57.1365V30.2742H38.7192V21.5624Z" fill="#00BAA0"/>
<path d="M44.0186 17.6581H47.2456V25.4667H44.0186V17.6581Z" fill="#464646"/>
<path d="M50.9677 17.6581H54.1947V25.4667H50.9677V17.6581Z" fill="#464646"/>
<path d="M38.7193 55.4724C44.8927 55.4724 49.8972 50.4679 49.8972 44.2945C49.8972 38.1211 44.8927 33.1166 38.7193 33.1166C32.5459 33.1166 27.5413 38.1211 27.5413 44.2945C27.5413 50.4679 32.5459 55.4724 38.7193 55.4724Z" fill="#FF6379"/>
<path d="M49.8972 44.2935C49.8972 38.1201 44.8927 33.1156 38.7193 33.1156V55.4716C44.8928 55.4716 49.8972 50.467 49.8972 44.2935Z" fill="#FF1F3E"/>
<path d="M45.3807 42.489H40.524V37.6321H36.9147V42.489H32.0579V46.0982H36.9147V50.9551H40.524V46.0982H45.3807V42.489Z" fill="#EEF4FF"/>
<path d="M40.524 37.6321H38.7193V50.9551H40.524V46.0982H45.3807V42.489H40.524V37.6321Z" fill="#D6E9F8"/>
</svg>
