<?xml version="1.0" encoding="UTF-8"?>
<svg xmlns="http://www.w3.org/2000/svg" xmlns:xlink="http://www.w3.org/1999/xlink" width="60pt" height="60pt" viewBox="0 0 60 60" version="1.1">
<g id="surface1">
<path style=" stroke:none;fill-rule:nonzero;fill:rgb(55.294118%,14.117647%,66.27451%);fill-opacity:1;" d="M 60 30 C 60 46.570312 46.570312 60 30 60 C 13.429688 60 0 46.570312 0 30 C 0 13.429688 13.429688 0 30 0 C 46.570312 0 60 13.429688 60 30 Z M 60 30 "/>
<path style=" stroke:none;fill-rule:nonzero;fill:rgb(41.568627%,10.588235%,60%);fill-opacity:1;" d="M 60 30 C 60 28.988281 59.949219 27.988281 59.851562 27 L 50.140625 17.289062 L 10.15625 43.140625 L 26.851562 59.835938 C 27.886719 59.945312 28.9375 60 30 60 C 46.570312 60 60 46.570312 60 30 Z M 60 30 "/>
<path style=" stroke:none;fill-rule:nonzero;fill:rgb(99.607843%,91.764706%,23.137255%);fill-opacity:1;" d="M 47.402344 44.289062 L 12.597656 44.289062 C 10.851562 44.289062 9.433594 42.875 9.433594 41.125 L 9.433594 18.875 C 9.433594 17.125 10.851562 15.710938 12.597656 15.710938 L 47.402344 15.710938 C 49.148438 15.710938 50.566406 17.125 50.566406 18.875 L 50.566406 41.125 C 50.566406 42.875 49.148438 44.289062 47.402344 44.289062 Z M 47.402344 44.289062 "/>
<path style=" stroke:none;fill-rule:nonzero;fill:rgb(97.647059%,76.862745%,11.764706%);fill-opacity:1;" d="M 47.402344 15.710938 L 30.0625 15.710938 L 30.0625 44.289062 L 47.402344 44.289062 C 49.148438 44.289062 50.566406 42.875 50.566406 41.125 L 50.566406 18.875 C 50.566406 17.125 49.148438 15.710938 47.402344 15.710938 Z M 47.402344 15.710938 "/>
<path style=" stroke:none;fill-rule:nonzero;fill:rgb(27.058824%,35.294118%,39.215686%);fill-opacity:1;" d="M 9.433594 20.917969 L 50.566406 20.917969 L 50.566406 28.066406 L 9.433594 28.066406 Z M 9.433594 20.917969 "/>
<path style=" stroke:none;fill-rule:nonzero;fill:rgb(21.568627%,27.843137%,30.980392%);fill-opacity:1;" d="M 30.0625 20.917969 L 50.566406 20.917969 L 50.566406 28.066406 L 30.0625 28.066406 Z M 30.0625 20.917969 "/>
<path style=" stroke:none;fill-rule:nonzero;fill:rgb(100%,48.627451%,6.666667%);fill-opacity:1;" d="M 13.652344 31.40625 L 27.011719 31.40625 L 27.011719 32.519531 L 13.652344 32.519531 Z M 13.652344 31.40625 "/>
<path style=" stroke:none;fill-rule:nonzero;fill:rgb(100%,48.627451%,6.666667%);fill-opacity:1;" d="M 13.652344 37.851562 L 24.492188 37.851562 L 24.492188 38.964844 L 13.652344 38.964844 Z M 13.652344 37.851562 "/>
<path style=" stroke:none;fill-rule:nonzero;fill:rgb(100%,48.627451%,6.666667%);fill-opacity:1;" d="M 13.652344 34.628906 L 22.558594 34.628906 L 22.558594 35.742188 L 13.652344 35.742188 Z M 13.652344 34.628906 "/>
</g>
</svg>
