<?xml version="1.0" encoding="UTF-8"?>
<svg xmlns="http://www.w3.org/2000/svg" xmlns:xlink="http://www.w3.org/1999/xlink" width="60pt" height="60pt" viewBox="0 0 60 60" version="1.1">
<g id="surface1">
<path style=" stroke:none;fill-rule:nonzero;fill:rgb(100%,58.039216%,31.764706%);fill-opacity:1;" d="M 60 30 C 60 46.570312 46.570312 60 30 60 C 13.429688 60 0 46.570312 0 30 C 0 13.429688 13.429688 0 30 0 C 46.570312 0 60 13.429688 60 30 Z M 60 30 "/>
<path style=" stroke:none;fill-rule:nonzero;fill:rgb(96.862745%,40.392157%,30.980392%);fill-opacity:1;" d="M 28.171875 38.839844 L 45.199219 55.867188 C 54.054688 50.652344 60 41.019531 60 30 C 60 28.492188 59.886719 27.015625 59.671875 25.566406 L 46.519531 12.414062 Z M 28.171875 38.839844 "/>
<path style=" stroke:none;fill-rule:nonzero;fill:rgb(94.901961%,85.098039%,61.176471%);fill-opacity:1;" d="M 31.628906 23.738281 C 31.628906 25.234375 30.414062 26.449219 28.917969 26.449219 C 27.421875 26.449219 26.207031 25.234375 26.207031 23.738281 C 26.207031 22.238281 27.421875 21.027344 28.917969 21.027344 C 30.414062 21.027344 31.628906 22.238281 31.628906 23.738281 Z M 31.628906 23.738281 "/>
<path style=" stroke:none;fill-rule:nonzero;fill:rgb(82.745098%,73.72549%,53.72549%);fill-opacity:1;" d="M 50.65625 23.738281 C 50.65625 25.234375 49.441406 26.449219 47.945312 26.449219 C 46.449219 26.449219 45.234375 25.234375 45.234375 23.738281 C 45.234375 22.238281 46.449219 21.027344 47.945312 21.027344 C 49.441406 21.027344 50.65625 22.238281 50.65625 23.738281 Z M 50.65625 23.738281 "/>
<path style=" stroke:none;fill-rule:nonzero;fill:rgb(82.745098%,73.72549%,53.72549%);fill-opacity:1;" d="M 52.332031 39.800781 L 43.511719 38.671875 C 42.429688 38.535156 41.617188 37.613281 41.617188 36.523438 L 41.617188 32.523438 L 35.246094 32.523438 L 35.246094 36.523438 C 35.246094 37.613281 34.433594 38.535156 33.351562 38.671875 L 24.53125 39.800781 C 21.832031 40.148438 19.808594 42.445312 19.808594 45.167969 L 19.808594 49.253906 C 24.660156 53.859375 31.214844 56.683594 38.433594 56.683594 C 40.8125 56.683594 43.121094 56.371094 45.324219 55.796875 C 50.21875 52.878906 54.214844 48.613281 56.792969 43.507812 C 56.164062 41.558594 54.457031 40.074219 52.332031 39.800781 Z M 52.332031 39.800781 "/>
<path style=" stroke:none;fill-rule:nonzero;fill:rgb(100%,92.54902%,70.196078%);fill-opacity:1;" d="M 43.628906 34.179688 L 42.132812 34.988281 C 39.832031 36.226562 37.0625 36.226562 34.761719 34.988281 L 33.265625 34.179688 C 30.5 32.691406 28.777344 29.804688 28.777344 26.667969 L 28.777344 17.433594 L 48.117188 17.433594 L 48.117188 26.667969 C 48.117188 29.804688 46.394531 32.691406 43.628906 34.179688 Z M 43.628906 34.179688 "/>
<path style=" stroke:none;fill-rule:nonzero;fill:rgb(100%,84.705882%,38.823529%);fill-opacity:1;" d="M 38.320312 17.433594 L 38.320312 35.914062 C 39.628906 35.9375 40.941406 35.628906 42.132812 34.988281 L 43.628906 34.179688 C 46.394531 32.691406 48.117188 29.804688 48.117188 26.667969 L 48.117188 17.433594 Z M 38.320312 17.433594 "/>
<path style=" stroke:none;fill-rule:nonzero;fill:rgb(100%,100%,100%);fill-opacity:1;" d="M 56.792969 43.507812 C 56.164062 41.558594 54.457031 40.074219 52.332031 39.800781 L 44.867188 38.847656 C 43.257812 40.5625 40.96875 41.636719 38.429688 41.636719 C 35.894531 41.636719 33.605469 40.5625 31.996094 38.847656 L 24.53125 39.800781 C 21.832031 40.148438 19.808594 42.445312 19.808594 45.167969 L 19.808594 49.253906 C 22.953125 52.238281 26.8125 56.996094 31.105469 59.976562 C 42.34375 59.570312 52.007812 52.980469 56.792969 43.507812 Z M 56.792969 43.507812 "/>
<path style=" stroke:none;fill-rule:nonzero;fill:rgb(94.901961%,94.901961%,94.901961%);fill-opacity:1;" d="M 56.792969 43.507812 C 56.164062 41.558594 54.457031 40.074219 52.332031 39.800781 L 44.867188 38.847656 C 43.257812 40.5625 40.96875 41.636719 38.429688 41.636719 L 38.429688 58.796875 C 46.457031 56.453125 53.085938 50.84375 56.792969 43.507812 Z M 56.792969 43.507812 "/>
<path style=" stroke:none;fill-rule:nonzero;fill:rgb(87.843137%,87.843137%,87.843137%);fill-opacity:1;" d="M 37.972656 41.625 C 35.617188 41.503906 33.507812 40.460938 31.996094 38.847656 L 28.777344 39.257812 L 33.875 45.839844 L 38.433594 41.640625 C 38.277344 41.640625 38.125 41.636719 37.972656 41.625 Z M 37.972656 41.625 "/>
<path style=" stroke:none;fill-rule:nonzero;fill:rgb(87.843137%,87.843137%,87.843137%);fill-opacity:1;" d="M 38.433594 41.640625 L 42.988281 45.839844 L 48.085938 39.257812 L 44.867188 38.847656 C 43.355469 40.460938 41.246094 41.503906 38.890625 41.625 C 38.738281 41.636719 38.585938 41.640625 38.433594 41.640625 Z M 38.433594 41.640625 "/>
<path style=" stroke:none;fill-rule:nonzero;fill:rgb(30.196078%,30.196078%,30.196078%);fill-opacity:1;" d="M 48.003906 27.859375 L 49.703125 27.859375 L 49.703125 20.257812 C 49.703125 14.027344 44.640625 8.980469 38.40625 9 C 32.183594 9.023438 27.1875 14.160156 27.1875 20.382812 L 27.1875 27.859375 L 28.777344 27.859375 L 28.777344 22.605469 C 36.140625 23.5625 41.972656 18.292969 41.972656 18.292969 C 41.972656 18.292969 44.527344 23.246094 48.003906 24.121094 Z M 48.003906 27.859375 "/>
<path style=" stroke:none;fill-rule:nonzero;fill:rgb(20%,20%,20%);fill-opacity:1;" d="M 38.40625 9 C 38.378906 9 38.347656 9.003906 38.320312 9.003906 L 38.320312 20.714844 C 40.589844 19.542969 41.972656 18.292969 41.972656 18.292969 C 41.972656 18.292969 44.527344 23.246094 48.003906 24.121094 L 48.003906 27.859375 L 49.703125 27.859375 L 49.703125 20.257812 C 49.703125 14.027344 44.640625 8.980469 38.40625 9 Z M 38.40625 9 "/>
<path style=" stroke:none;fill-rule:nonzero;fill:rgb(45.882353%,29.803922%,14.117647%);fill-opacity:1;" d="M 7.976562 26.476562 L 29.695312 26.476562 L 29.695312 44.296875 L 7.976562 44.296875 Z M 7.976562 26.476562 "/>
<path style=" stroke:none;fill-rule:nonzero;fill:rgb(37.647059%,21.960784%,7.45098%);fill-opacity:1;" d="M 18.75 26.476562 L 29.695312 26.476562 L 29.695312 44.296875 L 18.75 44.296875 Z M 18.75 26.476562 "/>
<path style=" stroke:none;fill-rule:nonzero;fill:rgb(94.901961%,85.098039%,61.176471%);fill-opacity:1;" d="M 30.390625 43.152344 L 23.050781 42.214844 C 22.148438 42.101562 21.472656 41.332031 21.472656 40.425781 L 21.472656 37.09375 L 16.167969 37.09375 L 16.167969 40.425781 C 16.167969 41.332031 15.496094 42.101562 14.59375 42.214844 L 7.253906 43.152344 C 5.917969 43.324219 4.785156 44.066406 4.082031 45.117188 C 8.070312 51.933594 14.667969 57.039062 22.503906 59.054688 C 26.886719 58.4375 30.917969 56.730469 34.320312 54.214844 L 34.320312 47.621094 C 34.320312 45.355469 32.636719 43.441406 30.390625 43.152344 Z M 30.390625 43.152344 "/>
<path style=" stroke:none;fill-rule:nonzero;fill:rgb(80.784314%,71.764706%,52.54902%);fill-opacity:1;" d="M 30.390625 43.152344 L 23.050781 42.214844 C 22.148438 42.101562 21.472656 41.332031 21.472656 40.425781 L 21.472656 37.09375 L 18.75 37.09375 L 18.75 57.816406 C 19.964844 58.308594 21.21875 58.726562 22.503906 59.054688 C 26.886719 58.4375 30.921875 56.730469 34.320312 54.214844 L 34.320312 47.621094 C 34.320312 45.355469 32.636719 43.441406 30.390625 43.152344 Z M 30.390625 43.152344 "/>
<path style=" stroke:none;fill-rule:nonzero;fill:rgb(100%,92.54902%,70.196078%);fill-opacity:1;" d="M 23.835938 37.609375 L 22.390625 38.386719 C 20.171875 39.582031 17.5 39.582031 15.28125 38.386719 L 13.835938 37.609375 C 11.167969 36.171875 9.507812 33.390625 9.507812 30.359375 L 9.507812 21.453125 L 28.164062 21.453125 L 28.164062 30.359375 C 28.164062 33.386719 26.5 36.171875 23.835938 37.609375 Z M 23.835938 37.609375 "/>
<path style=" stroke:none;fill-rule:nonzero;fill:rgb(100%,84.705882%,38.823529%);fill-opacity:1;" d="M 18.75 21.453125 L 18.75 39.28125 C 20 39.296875 21.253906 39 22.390625 38.386719 L 23.835938 37.609375 C 26.5 36.171875 28.164062 33.390625 28.164062 30.359375 L 28.164062 21.453125 Z M 18.75 21.453125 "/>
<path style=" stroke:none;fill-rule:nonzero;fill:rgb(0%,54.901961%,76.470588%);fill-opacity:1;" d="M 30.390625 43.152344 L 24.175781 42.359375 C 22.835938 43.789062 20.933594 44.683594 18.820312 44.683594 C 16.707031 44.683594 14.804688 43.789062 13.464844 42.359375 L 7.253906 43.152344 C 5.917969 43.324219 4.785156 44.066406 4.082031 45.117188 C 9.21875 53.902344 18.691406 59.839844 29.5625 59.996094 C 31.183594 59.96875 32.773438 59.808594 34.320312 59.523438 L 34.320312 47.621094 C 34.320312 45.355469 32.636719 43.441406 30.390625 43.152344 Z M 30.390625 43.152344 "/>
<path style=" stroke:none;fill-rule:nonzero;fill:rgb(0%,45.490196%,63.921569%);fill-opacity:1;" d="M 30.390625 43.152344 L 24.175781 42.359375 C 22.835938 43.789062 20.933594 44.683594 18.820312 44.683594 C 18.796875 44.683594 18.773438 44.679688 18.75 44.679688 L 18.75 57.816406 C 22.097656 59.171875 25.742188 59.941406 29.5625 59.996094 C 31.183594 59.96875 32.773438 59.808594 34.320312 59.523438 L 34.320312 47.621094 C 34.320312 45.355469 32.636719 43.441406 30.390625 43.152344 Z M 30.390625 43.152344 "/>
<path style=" stroke:none;fill-rule:nonzero;fill:rgb(54.901961%,38.431373%,22.352941%);fill-opacity:1;" d="M 18.796875 13.320312 C 12.796875 13.339844 7.976562 18.292969 7.976562 24.296875 L 7.976562 39.460938 L 9.246094 36.445312 C 9.613281 35.574219 9.800781 34.640625 9.800781 33.699219 L 9.800781 27.628906 C 19.519531 26.398438 23.09375 21.929688 23.09375 21.929688 C 23.09375 21.929688 24.410156 25.058594 27.867188 27.640625 L 27.867188 33.699219 C 27.867188 34.640625 28.058594 35.574219 28.421875 36.445312 L 29.695312 39.460938 L 29.695312 24.179688 C 29.695312 18.167969 24.8125 13.296875 18.796875 13.320312 Z M 18.796875 13.320312 "/>
<path style=" stroke:none;fill-rule:nonzero;fill:rgb(45.882353%,29.803922%,14.117647%);fill-opacity:1;" d="M 29.695312 24.179688 C 29.695312 18.167969 24.8125 13.296875 18.796875 13.320312 C 18.78125 13.320312 18.765625 13.320312 18.75 13.320312 L 18.75 25.054688 C 21.824219 23.511719 23.09375 21.929688 23.09375 21.929688 C 23.09375 21.929688 24.410156 25.058594 27.867188 27.640625 L 27.867188 33.699219 C 27.867188 34.640625 28.058594 35.574219 28.421875 36.441406 L 29.695312 39.460938 Z M 29.695312 24.179688 "/>
<path style=" stroke:none;fill-rule:nonzero;fill:rgb(94.901961%,85.098039%,61.176471%);fill-opacity:1;" d="M 41.609375 49.074219 L 36.261719 48.390625 C 35.605469 48.308594 35.113281 47.75 35.113281 47.085938 L 35.113281 44.660156 L 31.25 44.660156 L 31.25 47.085938 C 31.25 47.75 30.757812 48.308594 30.101562 48.390625 L 24.753906 49.074219 C 23.117188 49.285156 21.890625 50.679688 21.890625 52.328125 L 21.890625 57.136719 C 23.464844 58.296875 25.222656 59.222656 27.113281 59.863281 C 28.0625 59.953125 29.027344 60 30 60 C 35.25 60 40.183594 58.648438 44.476562 56.28125 L 44.476562 52.328125 C 44.476562 50.679688 43.25 49.285156 41.609375 49.074219 Z M 41.609375 49.074219 "/>
<path style=" stroke:none;fill-rule:nonzero;fill:rgb(78.823529%,70.980392%,52.941176%);fill-opacity:1;" d="M 44.476562 52.328125 C 44.476562 50.679688 43.25 49.285156 41.609375 49.074219 L 36.261719 48.390625 C 35.605469 48.308594 35.113281 47.75 35.113281 47.085938 L 35.113281 44.660156 L 33.125 44.660156 L 33.125 59.839844 C 37.207031 59.414062 41.046875 58.175781 44.476562 56.28125 Z M 44.476562 52.328125 "/>
<path style=" stroke:none;fill-rule:nonzero;fill:rgb(100%,92.54902%,70.196078%);fill-opacity:1;" d="M 36.835938 45.035156 L 35.78125 45.601562 C 34.164062 46.472656 32.21875 46.472656 30.601562 45.601562 L 29.550781 45.035156 C 27.605469 43.988281 26.394531 41.960938 26.394531 39.753906 L 26.394531 33.265625 L 39.988281 33.265625 L 39.988281 39.753906 C 39.988281 41.960938 38.777344 43.988281 36.835938 45.035156 Z M 36.835938 45.035156 "/>
<path style=" stroke:none;fill-rule:nonzero;fill:rgb(100%,84.705882%,38.823529%);fill-opacity:1;" d="M 33.125 33.265625 L 33.125 46.253906 C 34.039062 46.265625 34.953125 46.050781 35.78125 45.601562 L 36.835938 45.035156 C 38.777344 43.988281 39.988281 41.960938 39.988281 39.753906 L 39.988281 33.265625 Z M 33.125 33.265625 "/>
<path style=" stroke:none;fill-rule:nonzero;fill:rgb(59.607843%,19.607843%,38.431373%);fill-opacity:1;" d="M 41.609375 49.074219 L 37.085938 48.496094 C 36.109375 49.539062 34.722656 50.1875 33.183594 50.1875 C 31.644531 50.1875 30.257812 49.539062 29.28125 48.496094 L 24.753906 49.074219 C 23.117188 49.285156 21.890625 50.679688 21.890625 52.328125 L 21.890625 58.890625 C 24.46875 59.613281 27.1875 60 30 60 C 35.25 60 40.183594 58.648438 44.476562 56.28125 L 44.476562 52.328125 C 44.476562 50.679688 43.25 49.285156 41.609375 49.074219 Z M 41.609375 49.074219 "/>
<path style=" stroke:none;fill-rule:nonzero;fill:rgb(40%,18.039216%,34.117647%);fill-opacity:1;" d="M 44.476562 52.328125 C 44.476562 50.679688 43.25 49.285156 41.609375 49.074219 L 37.085938 48.496094 C 36.109375 49.539062 34.722656 50.1875 33.183594 50.1875 C 33.164062 50.1875 33.144531 50.1875 33.125 50.1875 L 33.125 59.839844 C 37.207031 59.414062 41.046875 58.171875 44.476562 56.28125 Z M 44.476562 52.328125 "/>
<path style=" stroke:none;fill-rule:nonzero;fill:rgb(45.882353%,29.803922%,14.117647%);fill-opacity:1;" d="M 25.269531 37.605469 C 30.496094 37.605469 33.171875 33.746094 33.171875 33.746094 C 33.171875 33.746094 35.867188 37.605469 41.09375 37.605469 L 41.09375 35.25 C 41.09375 30.871094 37.535156 27.324219 33.15625 27.339844 C 28.78125 27.355469 25.269531 30.964844 25.269531 35.335938 Z M 25.269531 37.605469 "/>
<path style=" stroke:none;fill-rule:nonzero;fill:rgb(37.647059%,21.960784%,7.45098%);fill-opacity:1;" d="M 33.15625 27.339844 C 33.144531 27.339844 33.132812 27.339844 33.125 27.339844 L 33.125 33.8125 C 33.15625 33.773438 33.171875 33.746094 33.171875 33.746094 C 33.171875 33.746094 35.867188 37.605469 41.09375 37.605469 L 41.09375 35.25 C 41.09375 30.871094 37.535156 27.324219 33.15625 27.339844 Z M 33.15625 27.339844 "/>
<path style=" stroke:none;fill-rule:nonzero;fill:rgb(54.901961%,38.431373%,22.352941%);fill-opacity:1;" d="M 25.28125 42.277344 L 20.265625 42.277344 L 21.886719 36.523438 C 22.152344 35.574219 23.015625 34.921875 24 34.921875 L 25.28125 34.921875 Z M 25.28125 42.277344 "/>
<path style=" stroke:none;fill-rule:nonzero;fill:rgb(100%,24.705882%,51.764706%);fill-opacity:1;" d="M 24.027344 34.921875 L 25.28125 34.921875 L 25.28125 37.605469 L 24.027344 37.605469 Z M 24.027344 34.921875 "/>
<path style=" stroke:none;fill-rule:nonzero;fill:rgb(45.882353%,29.803922%,14.117647%);fill-opacity:1;" d="M 41.085938 42.277344 L 46.097656 42.277344 L 44.480469 36.523438 C 44.214844 35.574219 43.351562 34.921875 42.367188 34.921875 L 41.085938 34.921875 Z M 41.085938 42.277344 "/>
<path style=" stroke:none;fill-rule:nonzero;fill:rgb(59.607843%,19.607843%,38.431373%);fill-opacity:1;" d="M 41.085938 34.921875 L 42.339844 34.921875 L 42.339844 37.605469 L 41.085938 37.605469 Z M 41.085938 34.921875 "/>
</g>
</svg>
