<?xml version="1.0" standalone="no"?>
<!DOCTYPE svg PUBLIC "-//W3C//DTD SVG 20010904//EN"
 "http://www.w3.org/TR/2001/REC-SVG-20010904/DTD/svg10.dtd">
<svg version="1.0" xmlns="http://www.w3.org/2000/svg"
 width="128.000000pt" height="128.000000pt" viewBox="0 0 128.000000 128.000000"
 preserveAspectRatio="xMidYMid meet">

<g transform="translate(0.000000,128.000000) scale(0.100000,-0.100000)"
fill="#000000" stroke="none">
<path d="M585 933 c3 -71 8 -156 11 -190 5 -61 6 -61 41 -68 19 -3 37 -4 40
-1 6 5 22 242 23 329 l0 57 -60 0 -61 0 6 -127z"/>
<path d="M435 869 c-84 -24 -121 -122 -75 -197 26 -42 44 -48 74 -25 l24 19
-29 17 c-24 13 -29 22 -29 56 0 54 29 81 87 81 41 0 43 1 43 30 0 27 -3 30
-32 29 -18 0 -47 -5 -63 -10z"/>
<path d="M816 611 l-28 -6 21 -19 c28 -25 27 -61 -4 -91 -20 -21 -34 -25 -80
-25 l-56 0 7 70 7 70 -42 0 -42 0 7 -69 6 -70 -34 -14 c-50 -21 -78 -61 -78
-113 0 -63 7 -74 47 -74 33 0 34 1 19 22 -23 33 -19 65 11 96 l27 27 7 -25 c4
-14 7 -46 8 -72 1 -40 4 -48 20 -48 15 0 19 11 25 68 l7 67 38 -3 c99 -10 181
51 181 134 0 50 -14 85 -33 83 -7 -1 -25 -4 -41 -8z"/>
<path d="M736 235 l-39 -35 56 0 57 0 0 35 c0 46 -22 46 -74 0z"/>
<path d="M628 170 c5 -33 16 -39 26 -14 11 28 6 44 -12 44 -15 0 -18 -6 -14
-30z"/>
</g>
</svg>
