<?xml version="1.0" standalone="no"?>
<!DOCTYPE svg PUBLIC "-//W3C//DTD SVG 20010904//EN"
 "http://www.w3.org/TR/2001/REC-SVG-20010904/DTD/svg10.dtd">
<svg version="1.0" xmlns="http://www.w3.org/2000/svg"
 width="84.000000pt" height="84.000000pt" viewBox="0 0 84.000000 84.000000"
 preserveAspectRatio="xMidYMid meet">

<g transform="translate(0.000000,84.000000) scale(0.100000,-0.100000)"
fill="#000000" stroke="none">
<path d="M352 830 c-122 -18 -250 -113 -303 -225 -121 -258 30 -550 309 -594
329 -52 579 290 432 594 -78 162 -252 251 -438 225z m158 -145 c58 -20 115
-68 147 -122 21 -36 27 -63 31 -124 4 -70 2 -84 -23 -134 -32 -65 -105 -129
-167 -146 -185 -49 -358 79 -358 266 0 119 69 217 185 262 43 16 135 16 185
-2z"/>
<path d="M315 636 c-88 -40 -135 -114 -135 -211 0 -67 16 -108 61 -160 45 -50
100 -75 172 -75 98 0 178 50 218 135 22 48 25 142 6 188 -36 85 -129 147 -222
147 -31 0 -69 -9 -100 -24z m164 -62 c45 -37 43 -93 -4 -160 -19 -27 -35 -56
-35 -66 0 -28 -11 -48 -27 -48 -27 0 -10 82 26 131 40 55 42 104 6 121 -36 16
-70 -2 -78 -42 -8 -38 -31 -36 -35 3 -2 19 5 36 27 57 38 38 78 39 120 4z
m-45 -312 c8 -13 -11 -35 -23 -28 -16 10 -14 36 3 36 8 0 17 -4 20 -8z"/>
</g>
</svg>
