<?xml version="1.0" standalone="no"?>
<!DOCTYPE svg PUBLIC "-//W3C//DTD SVG 20010904//EN"
 "http://www.w3.org/TR/2001/REC-SVG-20010904/DTD/svg10.dtd">
<svg version="1.0" xmlns="http://www.w3.org/2000/svg"
 width="84.000000pt" height="84.000000pt" viewBox="0 0 84.000000 84.000000"
 preserveAspectRatio="xMidYMid meet">

<g transform="translate(0.000000,84.000000) scale(0.100000,-0.100000)"
fill="#000000" stroke="none">
<path d="M347 830 c-271 -46 -420 -347 -297 -597 149 -302 591 -302 740 0 125
255 -26 551 -306 597 -66 11 -69 11 -137 0z m-47 -160 c5 -20 13 -26 42 -28
31 -3 37 0 40 19 7 49 69 50 76 0 3 -17 10 -21 37 -21 27 0 34 4 37 21 4 30
33 47 56 33 9 -6 18 -21 20 -33 3 -17 10 -21 42 -21 29 0 42 -5 50 -19 13 -25
13 -278 0 -286 -5 -3 -10 29 -12 82 l-3 88 -267 3 -268 2 0 -153 c0 -106 4
-157 12 -165 8 -8 57 -12 155 -12 89 0 143 -4 143 -10 0 -14 -285 -13 -311 0
-18 10 -19 23 -19 228 0 237 1 242 55 242 25 0 33 6 42 31 10 25 16 30 40 27
20 -2 29 -10 33 -28z m-15 -229 c10 -33 -5 -51 -41 -51 -32 0 -34 2 -34 35 0
33 2 35 34 35 25 0 36 -5 41 -19z m110 -16 c0 -28 -3 -30 -35 -30 -26 0 -36 5
-38 18 -7 34 6 48 40 45 29 -3 33 -6 33 -33z m120 0 c0 -27 -3 -30 -37 -33
-38 -3 -38 -3 -38 33 0 36 0 36 38 33 34 -3 37 -6 37 -33z m113 3 c-3 -30 -6
-33 -38 -33 -26 0 -36 5 -38 18 -7 33 6 47 43 47 35 0 36 -1 33 -32z m-341
-74 c10 -26 -11 -49 -43 -49 -25 0 -29 4 -32 33 -3 31 -2 32 33 32 24 0 38 -5
42 -16z m113 -14 c0 -34 -17 -45 -55 -36 -20 5 -25 13 -25 36 0 28 2 30 40 30
38 0 40 -2 40 -30z m105 20 c-3 -5 -15 -10 -26 -10 -15 0 -19 -6 -17 -20 2
-10 -1 -20 -7 -22 -5 -2 -11 12 -13 30 -3 31 -2 32 33 32 22 0 34 -4 30 -10z
m153 -15 c61 -51 66 -132 13 -186 -80 -79 -211 -23 -211 91 0 71 49 120 120
120 37 0 55 -6 78 -25z m-375 -76 c17 -28 1 -49 -38 -49 -32 0 -35 3 -35 28 0
16 3 32 7 36 12 12 55 2 66 -15z m115 -17 c3 -33 3 -33 -35 -30 -27 2 -39 8
-41 21 -7 34 6 48 40 45 29 -3 33 -7 36 -36z"/>
<path d="M250 635 c0 -33 4 -45 15 -45 11 0 15 12 15 45 0 33 -4 45 -15 45
-11 0 -15 -12 -15 -45z"/>
<path d="M407 674 c-4 -4 -7 -25 -7 -46 0 -32 3 -39 18 -36 13 2 17 13 17 42
0 37 -13 55 -28 40z"/>
<path d="M554 656 c-8 -32 3 -66 22 -66 12 0 14 10 12 42 -3 47 -24 62 -34 24z"/>
<path d="M157 613 c-4 -3 -7 -24 -7 -45 l0 -38 270 0 270 0 0 29 c0 49 -9 61
-46 61 -27 0 -34 -4 -34 -20 0 -10 -9 -24 -21 -30 -16 -9 -25 -8 -40 6 -10 9
-19 23 -19 31 0 8 -12 13 -34 13 -27 0 -35 -5 -40 -24 -3 -13 -13 -27 -22 -30
-22 -9 -54 11 -54 34 0 17 -7 20 -40 20 -33 0 -40 -3 -40 -20 0 -10 -9 -24
-20 -30 -15 -8 -24 -6 -40 10 -11 11 -20 25 -20 30 0 11 -53 14 -63 3z"/>
<path d="M230 425 c0 -8 7 -15 15 -15 8 0 15 7 15 15 0 8 -7 15 -15 15 -8 0
-15 -7 -15 -15z"/>
<path d="M342 428 c7 -19 38 -22 38 -4 0 10 -9 16 -21 16 -12 0 -19 -5 -17
-12z"/>
<path d="M460 425 c0 -8 7 -15 15 -15 8 0 15 7 15 15 0 8 -7 15 -15 15 -8 0
-15 -7 -15 -15z"/>
<path d="M572 428 c7 -19 38 -22 38 -4 0 10 -9 16 -21 16 -12 0 -19 -5 -17
-12z"/>
<path d="M230 340 c0 -5 7 -10 15 -10 8 0 15 5 15 10 0 6 -7 10 -15 10 -8 0
-15 -4 -15 -10z"/>
<path d="M340 340 c0 -5 9 -10 20 -10 11 0 20 5 20 10 0 6 -9 10 -20 10 -11 0
-20 -4 -20 -10z"/>
<path d="M531 336 c-77 -43 -63 -157 24 -186 74 -24 149 51 125 125 -22 65
-90 93 -149 61z m119 -54 c0 -4 -20 -28 -45 -52 l-45 -44 -27 27 c-31 30 -24
50 7 22 20 -19 21 -18 58 18 36 36 52 45 52 29z"/>
<path d="M230 255 c0 -8 7 -15 15 -15 8 0 15 7 15 15 0 8 -7 15 -15 15 -8 0
-15 -7 -15 -15z"/>
<path d="M347 263 c-13 -12 -7 -23 13 -23 11 0 20 7 20 15 0 15 -21 21 -33 8z"/>
</g>
</svg>
