<?xml version="1.0" standalone="no"?>
<!DOCTYPE svg PUBLIC "-//W3C//DTD SVG 20010904//EN"
 "http://www.w3.org/TR/2001/REC-SVG-20010904/DTD/svg10.dtd">
<svg version="1.0" xmlns="http://www.w3.org/2000/svg"
 width="84.000000pt" height="84.000000pt" viewBox="0 0 84.000000 84.000000"
 preserveAspectRatio="xMidYMid meet">
<metadata>
Created by potrace 1.16, written by Peter Selinger 2001-2019
</metadata>
<g transform="translate(0.000000,84.000000) scale(0.100000,-0.100000)"
fill="#000000" stroke="none">
<path d="M294 825 c-70 -22 -121 -53 -174 -105 -82 -83 -120 -176 -120 -298 0
-94 21 -166 70 -240 81 -121 198 -182 350 -182 122 0 215 37 294 115 88 88
126 181 126 305 0 124 -37 216 -120 300 -85 84 -177 120 -305 119 -44 -1 -98
-7 -121 -14z m328 -112 c22 -20 23 -61 1 -85 -10 -11 -12 -18 -4 -18 17 0 61
-46 61 -65 0 -23 -15 -18 -28 10 -10 23 -17 25 -71 25 -74 0 -81 -9 -81 -114
0 -100 18 -98 22 2 2 43 7 77 13 77 6 0 11 -69 13 -182 1 -111 6 -183 12 -183
6 0 10 33 10 75 0 43 4 75 10 75 6 0 10 -32 10 -75 0 -42 4 -75 10 -75 6 0 11
72 12 183 2 113 7 182 13 182 6 0 11 -34 13 -77 3 -94 22 -105 22 -13 0 37 4
65 10 65 6 0 10 -30 10 -71 0 -62 -2 -72 -20 -76 -17 -5 -20 -15 -22 -107 l-3
-101 -49 -3 c-32 -2 -52 1 -57 10 -5 7 -9 55 -9 106 0 58 -4 92 -11 92 -5 0
-7 -5 -3 -11 3 -6 -3 -24 -15 -40 -11 -15 -21 -38 -21 -49 0 -13 -5 -20 -12
-17 -7 2 -13 16 -13 30 1 22 -4 27 -25 27 -25 0 -25 -1 -20 -67 4 -56 5 -60 8
-25 2 23 7 42 13 42 5 0 10 -19 10 -42 1 -38 2 -39 8 -14 8 37 31 47 31 13 0
-46 -10 -57 -50 -57 -44 0 -50 9 -50 83 -1 40 -6 59 -25 82 l-25 30 0 -26 c0
-28 -21 -79 -32 -79 -5 0 -8 7 -8 15 0 8 -4 15 -10 15 -5 0 -10 -22 -10 -50 0
-27 5 -50 10 -50 6 0 10 14 10 30 0 17 5 30 11 30 6 0 9 -16 7 -38 -3 -36 -4
-37 -47 -40 -53 -4 -61 5 -61 70 0 26 -5 50 -11 54 -6 3 -9 19 -5 35 3 16 1
29 -4 29 -6 0 -10 36 -10 84 0 87 12 116 46 116 19 0 18 6 -7 31 -15 15 -19
28 -14 47 12 52 68 69 105 32 24 -24 25 -49 5 -76 -19 -25 -19 -31 5 -37 27
-7 40 -46 40 -118 0 -52 2 -59 20 -59 11 0 20 7 20 15 0 18 34 37 54 29 8 -3
18 -14 21 -25 4 -10 12 -19 18 -19 9 0 11 25 9 89 -4 99 5 127 45 142 24 9 25
11 9 28 -51 56 29 136 86 84z"/>
<path d="M192 518 c-7 -7 -11 -32 -10 -57 l1 -46 6 44 c3 25 12 46 20 49 10 3
12 -2 8 -19 -3 -13 -9 -59 -12 -101 l-7 -78 49 0 49 0 -7 58 c-11 85 -10 142
1 142 6 0 11 -17 12 -37 l1 -38 4 33 c3 18 -1 40 -8 48 -14 17 -90 19 -107 2z"/>
</g>
</svg>
