<?xml version="1.0" standalone="no"?>
<!DOCTYPE svg PUBLIC "-//W3C//DTD SVG 20010904//EN"
 "http://www.w3.org/TR/2001/REC-SVG-20010904/DTD/svg10.dtd">
<svg version="1.0" xmlns="http://www.w3.org/2000/svg"
 width="84.000000pt" height="84.000000pt" viewBox="0 0 84.000000 84.000000"
 preserveAspectRatio="xMidYMid meet">

<g transform="translate(0.000000,84.000000) scale(0.100000,-0.100000)"
fill="#000000" stroke="none">
<path d="M341 829 c-169 -33 -301 -171 -332 -347 -30 -170 70 -360 227 -434
259 -121 546 28 595 310 30 169 -70 360 -226 433 -95 45 -173 56 -264 38z
m130 -42 c39 -26 64 -84 55 -123 -4 -15 -22 -42 -41 -61 -28 -28 -40 -33 -78
-33 -87 0 -146 85 -114 163 30 71 114 97 178 54z m-291 -202 c5 -37 7 -40 53
-53 27 -7 51 -20 54 -28 3 -9 21 -14 53 -14 40 0 53 5 78 30 26 25 38 30 81
30 72 0 72 -17 0 -22 -38 -3 -64 -10 -70 -19 -5 -8 -9 -44 -9 -81 l0 -68 125
0 125 0 0 85 0 85 -46 0 c-27 0 -43 4 -39 10 3 6 24 10 46 10 21 0 48 6 59 12
15 10 25 10 38 2 14 -9 17 -29 20 -118 3 -101 2 -106 -18 -106 -17 0 -20 -6
-20 -40 0 -22 5 -40 10 -40 6 0 16 -11 22 -25 9 -21 8 -28 -7 -45 -20 -23 -45
-26 -63 -8 -17 17 -15 53 3 68 8 7 15 19 15 26 0 12 -46 14 -260 14 -269 0
-284 -2 -238 -39 43 -35 -2 -98 -52 -71 -24 13 -27 52 -5 70 9 7 15 29 15 51
0 32 -3 39 -20 39 -18 0 -20 7 -20 65 0 37 4 65 10 65 6 0 10 -25 10 -55 l0
-55 135 0 c112 0 135 2 135 15 0 12 -22 15 -117 17 l-118 3 -3 108 c-2 86 -6
107 -17 107 -11 0 -15 -13 -15 -55 0 -30 -4 -55 -10 -55 -11 0 -14 88 -4 115
4 10 16 15 33 13 22 -3 27 -9 31 -43z"/>
<path d="M351 774 c-81 -57 -44 -184 54 -184 62 0 113 61 100 120 -14 65 -101
101 -154 64z m86 -33 c3 -11 13 -21 24 -24 11 -3 19 -14 19 -27 0 -13 -8 -24
-19 -27 -11 -3 -21 -13 -24 -24 -7 -27 -57 -26 -64 1 -3 11 -11 20 -19 20 -7
0 -16 5 -19 10 -9 15 4 50 20 50 8 0 17 9 20 20 8 27 55 27 62 1z"/>
<path d="M390 720 c0 -13 -7 -20 -20 -20 -11 0 -20 -4 -20 -10 0 -5 9 -10 20
-10 13 0 20 -7 20 -20 0 -11 7 -20 15 -20 8 0 15 9 15 20 0 13 7 20 20 20 11
0 20 5 20 10 0 6 -9 10 -20 10 -13 0 -20 7 -20 20 0 11 -7 20 -15 20 -8 0 -15
-9 -15 -20z"/>
<path d="M697 544 c-4 -4 -7 -47 -7 -96 0 -82 1 -88 20 -88 20 0 21 5 18 92
-3 84 -12 111 -31 92z"/>
<path d="M180 505 c0 -11 12 -15 48 -14 l47 1 -30 13 c-40 19 -65 18 -65 0z"/>
<path d="M187 463 c-4 -3 -7 -17 -7 -30 0 -23 1 -23 110 -23 l110 0 0 30 0 30
-103 0 c-57 0 -107 -3 -110 -7z"/>
<path d="M170 325 c0 -13 36 -15 260 -15 224 0 260 2 260 15 0 13 -36 15 -260
15 -224 0 -260 -2 -260 -15z"/>
<path d="M142 218 c2 -15 10 -23 23 -23 30 0 27 39 -3 43 -20 3 -23 0 -20 -20z"/>
<path d="M680 221 c0 -27 19 -36 37 -18 18 18 9 37 -18 37 -12 0 -19 -7 -19
-19z"/>
</g>
</svg>
