<?xml version="1.0" standalone="no"?>
<!DOCTYPE svg PUBLIC "-//W3C//DTD SVG 20010904//EN"
 "http://www.w3.org/TR/2001/REC-SVG-20010904/DTD/svg10.dtd">
<svg version="1.0" xmlns="http://www.w3.org/2000/svg"
 width="84.000000pt" height="84.000000pt" viewBox="0 0 84.000000 84.000000"
 preserveAspectRatio="xMidYMid meet">

<g transform="translate(0.000000,84.000000) scale(0.100000,-0.100000)"
fill="#000000" stroke="none">
<path d="M341 829 c-169 -33 -301 -171 -332 -347 -30 -170 70 -360 227 -434
259 -121 546 28 595 310 30 169 -70 360 -226 433 -95 45 -173 56 -264 38z
m239 -259 c0 -133 1 -140 20 -140 15 0 20 -7 20 -25 0 -22 4 -25 34 -25 19 0
37 -4 41 -9 3 -6 -14 -54 -38 -108 l-43 -98 -204 0 -205 0 -3 132 c-3 130 -2
131 23 151 24 19 25 24 25 134 0 63 3 118 7 121 3 4 78 7 165 7 l158 0 0 -140z"/>
<path d="M270 523 c0 -130 3 -164 12 -155 8 8 55 12 145 12 l133 0 0 155 0
155 -145 0 -145 0 0 -167z m260 130 c11 -10 20 -24 20 -33 0 -18 -42 -60 -60
-60 -17 0 -60 42 -60 59 0 21 32 50 57 50 13 1 32 -7 43 -16z m-185 -123 c0
-20 -6 -26 -27 -28 -24 -3 -28 0 -28 21 0 30 9 39 35 35 14 -2 20 -10 20 -28z
m35 0 c0 -5 -4 -10 -10 -10 -5 0 -10 5 -10 10 0 6 5 10 10 10 6 0 10 -4 10
-10z m150 0 c0 -6 -28 -10 -65 -10 -37 0 -65 4 -65 10 0 6 28 10 65 10 37 0
65 -4 65 -10z m-182 -82 c3 -25 0 -28 -27 -28 -26 0 -31 4 -31 23 0 30 9 39
35 35 13 -2 21 -12 23 -30z m122 12 c0 -5 -22 -10 -49 -10 -28 0 -53 5 -56 10
-4 6 15 10 49 10 31 0 56 -4 56 -10z m45 0 c-3 -5 -10 -10 -16 -10 -5 0 -9 5
-9 10 0 6 7 10 16 10 8 0 12 -4 9 -10z m-75 -30 c0 -5 -18 -10 -40 -10 -22 0
-40 5 -40 10 0 6 18 10 40 10 22 0 40 -4 40 -10z m100 0 c0 -5 -20 -10 -45
-10 -25 0 -45 5 -45 10 0 6 20 10 45 10 25 0 45 -4 45 -10z"/>
<path d="M472 635 c-11 -12 -9 -19 8 -37 17 -18 20 -19 20 -5 0 9 8 17 17 17
14 0 14 3 -5 20 -25 23 -23 23 -40 5z"/>
<path d="M310 530 c0 -5 5 -10 11 -10 5 0 7 5 4 10 -3 6 -8 10 -11 10 -2 0 -4
-4 -4 -10z"/>
<path d="M233 429 c-9 -9 -13 -44 -13 -103 1 -87 2 -90 16 -63 19 36 16 186
-3 166z"/>
<path d="M580 395 c0 -8 5 -15 10 -15 6 0 10 7 10 15 0 8 -4 15 -10 15 -5 0
-10 -7 -10 -15z"/>
<path d="M262 273 c-18 -43 -32 -81 -32 -86 0 -4 84 -6 187 -5 l186 3 34 78
c18 44 33 81 33 83 0 2 -85 4 -188 4 l-188 0 -32 -77z"/>
</g>
</svg>
